<?xml version="1.0" encoding="utf-8"?>
<!-- Generator: Adobe Illustrator 26.5.0, SVG Export Plug-In . SVG Version: 6.00 Build 0)  -->
<svg version="1.1" id="Layer_1" xmlns="http://www.w3.org/2000/svg" xmlns:xlink="http://www.w3.org/1999/xlink" x="0px" y="0px"
	 viewBox="0 0 276.4 32" style="enable-background:new 0 0 276.4 32;" xml:space="preserve">
<style type="text/css">
	.st0{fill:#FFBB55;}
</style>
<g>
	<path class="st0" d="M39.6,22.7l-1-1.7h9.3c0.6,0,1.1-0.2,1.5-0.6s0.6-0.9,0.6-1.5s-0.2-1.1-0.6-1.5c-0.4-0.4-0.9-0.6-1.5-0.6H33.6
		V9.3h13.6c0.7,0,1.3,0.2,1.9,0.5c0.6,0.3,1,0.8,1.4,1.4c0.3,0.6,0.5,1.2,0.5,1.9c0,0.5-0.1,1-0.3,1.5s-0.5,0.9-0.8,1.2
		c0.5,0.3,1,0.8,1.3,1.4s0.5,1.2,0.5,1.8c0,0.7-0.2,1.3-0.5,1.9s-0.8,1-1.4,1.4c-0.6,0.3-1.2,0.5-1.9,0.5L39.6,22.7L39.6,22.7z
		 M48.8,14.5c0.4-0.4,0.5-0.9,0.5-1.4c0-0.6-0.2-1.1-0.6-1.5c-0.3-0.4-0.8-0.6-1.4-0.6h-12v4.2h12.2C48,15.1,48.5,14.9,48.8,14.5z"
		/>
	<path class="st0" d="M61.9,22.6c-1.2-0.2-2.3-0.5-3.1-0.9l0,0c-1-0.6-1.8-1.3-2.4-2.2c-0.6-0.9-0.9-1.9-1-3.1v-7h1.7v4.8
		c0,1.6,0,2.5,0.1,2.6c0.1,0.6,0.3,1.2,0.6,1.7s0.7,1,1.1,1.3l0,0c0.4,0.3,0.9,0.6,1.4,0.8c1,0.4,2.2,0.5,3.6,0.5
		c0.6,0,1.2,0,1.9-0.1c1.4-0.2,2.4-0.6,3.1-1.2c0.9-0.7,1.5-1.8,1.7-3.1v-0.2c0-0.2,0-1,0-2.2v-5h1.7v7.1c-0.1,1.1-0.4,2.2-1,3.1
		s-1.4,1.7-2.4,2.2l0,0c-0.4,0.2-0.8,0.4-1.3,0.5c-1.1,0.3-2.3,0.5-3.7,0.5C63.1,22.7,62.5,22.7,61.9,22.6z"/>
	<path class="st0" d="M77.8,22.7l-1-1.7h14.3c0.4,0,0.7-0.1,1-0.3c0.3-0.2,0.4-0.5,0.6-0.9c0.1-0.3,0.1-0.6,0.1-0.9s0-0.6-0.1-0.9
		c-0.1-0.4-0.3-0.6-0.6-0.8s-0.6-0.3-1-0.3H78.7c-0.4,0-0.8-0.1-1.1-0.3c-0.3-0.2-0.6-0.5-0.8-0.8c-0.2-0.3-0.4-0.7-0.5-1.2
		s-0.2-1-0.2-1.5s0.1-1,0.2-1.5c0.1-0.4,0.3-0.8,0.5-1.1s0.5-0.6,0.8-0.8s0.7-0.3,1.1-0.3h13.9l1,1.7H79.3c-0.4,0-0.7,0.1-1,0.4
		c-0.3,0.2-0.4,0.5-0.6,0.9c-0.1,0.3-0.2,0.6-0.2,0.9c0,0.3,0,0.6,0.1,0.9c0.1,0.4,0.3,0.6,0.6,0.9c0.3,0.2,0.6,0.3,1,0.3h12.5
		c0.4,0,0.8,0.1,1.2,0.3c0.3,0.2,0.6,0.5,0.8,0.9c0.2,0.4,0.4,0.7,0.5,1.2s0.2,1,0.2,1.5c0,0.6-0.1,1.2-0.3,1.8s-0.5,1-0.9,1.4
		S92.3,23,91.7,23H77.8V22.7z"/>
	<path class="st0" d="M103.1,22.7l-1-1.7h6.3c1.4,0,2.6-0.5,3.5-1.5c1-1,1.5-2.2,1.5-3.5c0-0.7-0.1-1.3-0.4-1.9
		c-0.2-0.6-0.6-1.1-1.1-1.6s-1-0.9-1.6-1.1c-0.6-0.2-1.2-0.4-1.9-0.4h-9.6v5.8h-1.7V9.3h11.3c1.3,0,2.4,0.3,3.4,0.9
		c1,0.6,1.8,1.4,2.4,2.4s0.9,2.1,0.9,3.4c0,0.9-0.1,1.7-0.4,2.4c-0.3,0.7-0.7,1.4-1.2,2c-1.4,1.6-3.1,2.4-5.1,2.4L103.1,22.7
		L103.1,22.7z"/>
	<path class="st0" d="M138.6,22.7l-6.9-11.5l-5.9,9.8h5.1l1,1.7h-9.2l8-13.4h1.7l8,13.4H138.6z"/>
	<path class="st0" d="M148.1,22.6c-1.2-0.2-2.3-0.5-3.1-0.9l0,0c-1-0.6-1.8-1.3-2.4-2.2c-0.6-0.9-0.9-1.9-1-3.1v-7h1.7v4.8
		c0,1.6,0,2.5,0.1,2.6c0.1,0.6,0.3,1.2,0.6,1.7s0.7,1,1.1,1.3l0,0c0.4,0.3,0.9,0.6,1.4,0.8c1,0.4,2.2,0.5,3.6,0.5
		c0.6,0,1.2,0,1.9-0.1c1.4-0.2,2.4-0.6,3.1-1.2c0.9-0.7,1.5-1.8,1.7-3.1v-0.2c0-0.2,0-1,0-2.2v-5h1.7v7.1c-0.1,1.1-0.4,2.2-1,3.1
		s-1.4,1.7-2.4,2.2l0,0c-0.4,0.2-0.8,0.4-1.3,0.5c-1.1,0.3-2.3,0.5-3.7,0.5C149.4,22.7,148.7,22.7,148.1,22.6z"/>
	<path class="st0" d="M168.3,22.7V11h-6.7l-1-1.7H177l1,1.7h-7.9v11.7H168.3z"/>
	<path class="st0" d="M185.2,22.7l-1-1.7h7.6c0.9,0,1.7-0.2,2.3-0.7s1-1.1,1.3-1.9s0.4-1.6,0.4-2.4c0-0.8-0.1-1.6-0.4-2.4
		c-0.3-0.8-0.8-1.4-1.3-1.9c-0.6-0.5-1.3-0.7-2.3-0.7h-7c-1.1,0-2,0.4-2.8,1.2s-1.2,1.7-1.2,2.8v1.8h-1.7V15c0-1,0.3-2,0.8-2.8
		c0.5-0.9,1.2-1.5,2-2c0.9-0.5,1.8-0.8,2.8-0.8h7c1.8,0,3.3,0.7,4.3,2.1c1,1.3,1.4,2.8,1.4,4.6s-0.5,3.3-1.4,4.6
		c-1,1.4-2.5,2.1-4.3,2.1h-6.5V22.7z"/>
	<path class="st0" d="M218.4,22.7V12.6l-5.7,9.5h-3.4l-5.7-9.5v10.2h-1.7V9.3h1.7l7.4,12.3l7.4-12.3h1.7v13.4H218.4z"/>
	<path class="st0" d="M226.8,22.7V9.3h1.7v13.4H226.8z"/>
	<path class="st0" d="M250.4,22.7l-13.5-11.1v11.1h-1.7V9.3h1.7l13.5,11.1V9.3h1.7v13.4H250.4z"/>
	<path class="st0" d="M256.7,11l-1-1.7h15.7l1,1.7H256.7z M257.2,16.9v-1.7H269l1,1.7H257.2z M257.2,22.7V21h14.2l1,1.7H257.2z"/>
	<g>
		<path class="st0" d="M15.4,27.5C15.4,27.5,15.3,27.5,15.4,27.5c-1-1-1.9-1.9-2.8-2.8c0,0,0,0-0.1-0.1l0,0c0.7-0.7,1.4-1.5,2.2-2.2
			c0.7-0.7,1.3-1.3,2-2c0.6-0.6,1.3-1.3,1.9-1.9s1.3-1.3,1.9-1.9s1.3-1.3,1.9-1.9c0.5-0.5,1-1,1.5-1.5c0,0,0,0,0-0.1l0,0
			c0.1,0.1,0.2,0.2,0.3,0.3c0.2,0.2,0.3,0.4,0.5,0.5c0.2,0.2,0.3,0.3,0.5,0.5s0.3,0.3,0.5,0.5s0.3,0.3,0.5,0.5s0.3,0.3,0.5,0.5
			l0.1,0.1c0,0,0,0-0.1,0C23,19.9,19.2,23.7,15.4,27.5L15.4,27.5L15.4,27.5z"/>
		<path class="st0" d="M15.4,4.5L15.4,4.5c0.3,0.4,0.6,0.6,0.9,0.9c0.2,0.2,0.3,0.3,0.5,0.5s0.3,0.3,0.5,0.5s0.3,0.3,0.5,0.5
			s0.3,0.3,0.5,0.5l0.1,0.1c-2.4,2.4-4.8,4.8-7.2,7.2c-1-1-1.9-1.9-2.9-2.9l0,0c0.1-0.1,0.2-0.2,0.3-0.3c0.7-0.7,1.4-1.4,2.1-2.1
			c0.4-0.4,0.8-0.8,1.2-1.2c0.4-0.4,0.8-0.8,1.2-1.2c0.4-0.4,0.8-0.8,1.2-1.2C14.6,5.3,14.9,4.9,15.4,4.5
			C15.3,4.5,15.4,4.5,15.4,4.5L15.4,4.5z"/>
		<path class="st0" d="M11.1,23.2c-1-1-1.9-1.9-2.9-2.9c0.1-0.1,0.3-0.3,0.4-0.4c0.5-0.5,1.1-1.1,1.6-1.6c0.7-0.7,1.3-1.3,2-2
			c0.6-0.6,1.3-1.3,1.9-1.9c0.6-0.7,1.3-1.3,1.9-2c0.5-0.5,1-1,1.5-1.5c0.7-0.7,1.4-1.4,2.1-2.1c0,0,0,0,0-0.1
			c0.2,0.2,0.3,0.3,0.5,0.5l0.1,0.1c0.3,0.3,0.5,0.6,0.8,0.8c0.2,0.2,0.3,0.3,0.5,0.5s0.3,0.3,0.5,0.5s0.3,0.3,0.5,0.5l0.1,0.1
			C18.7,15.6,14.9,19.4,11.1,23.2z"/>
		<path class="st0" d="M6.8,18.9c-1-1-1.9-1.9-2.9-2.9l0,0l0,0c0.3-0.3,0.5-0.6,0.8-0.8c0.2-0.2,0.4-0.4,0.5-0.5
			c0.2-0.2,0.3-0.3,0.5-0.5s0.3-0.3,0.5-0.5s0.3-0.3,0.5-0.5c0.1,0.1,0.3,0.2,0.4,0.4l0,0c0.3,0.3,0.6,0.6,0.8,0.9
			c0.2,0.2,0.4,0.4,0.5,0.5c0.1,0.2,0.3,0.3,0.4,0.5C9,15.7,9.1,15.8,9.3,16c0.3-0.1,0.3,0,0.4,0C8.7,17,7.7,17.9,6.8,18.9z"/>
	</g>
</g>
</svg>
